<?xml version="1.0" encoding="utf-8"?>
<!-- Generator: Adobe Illustrator 15.0.0, SVG Export Plug-In . SVG Version: 6.00 Build 0)  -->
<!DOCTYPE svg PUBLIC "-//W3C//DTD SVG 1.1//EN" "http://www.w3.org/Graphics/SVG/1.1/DTD/svg11.dtd">
<svg version="1.1" xmlns="http://www.w3.org/2000/svg" xmlns:xlink="http://www.w3.org/1999/xlink" x="0px" y="0px" width="1920px"
	 height="1080px" viewBox="0 0 1920 1080" enable-background="new 0 0 1920 1080" xml:space="preserve">
<g id="Layer_2">
	<linearGradient id="SVGID_1_" gradientUnits="userSpaceOnUse" x1="-70.1411" y1="244.6123" x2="1990.1412" y2="835.3887">
		<stop  offset="0" style="stop-color:#000000"/>
		<stop  offset="0.1576" style="stop-color:#055587"/>
		<stop  offset="0.303" style="stop-color:#0999F2"/>
		<stop  offset="0.5" style="stop-color:#47C2FC"/>
		<stop  offset="0.703" style="stop-color:#0999F2"/>
		<stop  offset="0.8545" style="stop-color:#044A75"/>
		<stop  offset="1" style="stop-color:#000000"/>
	</linearGradient>
	<rect fill-rule="evenodd" clip-rule="evenodd" fill="url(#SVGID_1_)" width="1920" height="1080"/>
</g>
<g id="Layer_5">
	
		<linearGradient id="SVGID_2_" gradientUnits="userSpaceOnUse" x1="-68.8521" y1="249.6816" x2="569.7466" y2="249.6816" gradientTransform="matrix(1.7507 1.7463 -3.0424 3.0501 1089.7943 -856.2705)">
		<stop  offset="0" style="stop-color:#000000"/>
		<stop  offset="0.2424" style="stop-color:#000000;stop-opacity:0.34"/>
		<stop  offset="0.3509" style="stop-color:#303030;stop-opacity:0.2913"/>
		<stop  offset="0.5304" style="stop-color:#787878;stop-opacity:0.2107"/>
		<stop  offset="0.6916" style="stop-color:#B2B2B2;stop-opacity:0.1384"/>
		<stop  offset="0.8284" style="stop-color:#DCDCDC;stop-opacity:0.077"/>
		<stop  offset="0.9357" style="stop-color:#F6F6F6;stop-opacity:0.0289"/>
		<stop  offset="1" style="stop-color:#FFFFFF;stop-opacity:0"/>
	</linearGradient>
	<polygon fill-rule="evenodd" clip-rule="evenodd" fill="url(#SVGID_2_)" points="501.943,1728.009 -616.066,612.836 
		1035.313,-1042.735 2153.321,72.443 	"/>
</g>
<g id="Scan_Lines" opacity="0.06">
	<g id="Shape_1">
		<g>
			<path fill-rule="evenodd" clip-rule="evenodd" d="M897.002-7.364L42.23,1087.149h4.655L901.657-7.364H897.002z M911.521-7.364
				L56.75,1087.149h4.656L916.176-7.364H911.521z M904.262-7.364L49.49,1087.149h4.656L908.917-7.364H904.262z M926.041-7.364
				L71.269,1087.149h4.655L930.695-7.364H926.041z M918.78-7.364L64.009,1087.149h4.656L923.435-7.364H918.78z M867.964-7.364
				L13.192,1087.149h4.656L872.619-7.364H867.964z M860.705-7.364L5.933,1087.149h4.656L865.36-7.364H860.705z M1376.132-7.364
				L521.36,1087.149h4.655L1380.786-7.364H1376.132z M882.482-7.364L27.711,1087.149h4.656L887.138-7.364H882.482z M889.742-7.364
				L34.97,1087.149h4.656L894.398-7.364H889.742z M875.223-7.364L20.452,1087.149h4.655L879.878-7.364H875.223z M853.444-7.364
				L-1.327,1087.149h4.656L858.099-7.364H853.444z M998.636-7.364L143.864,1087.149h4.655L1003.289-7.364H998.636z M1005.895-7.364
				L151.123,1087.149h4.657L1010.55-7.364H1005.895z M991.376-7.364L136.604,1087.149h4.656L996.03-7.364H991.376z M1013.155-7.364
				L158.383,1087.149h4.655L1017.81-7.364H1013.155z M1020.414-7.364L165.642,1087.149h4.656L1025.068-7.364H1020.414z
				 M671.957-7.364L-13.044,869.763v5.96L676.611-7.364H671.957z M976.857-7.364L122.085,1087.149h4.656L981.512-7.364H976.857z
				 M955.078-7.364L100.306,1087.149h4.657L959.733-7.364H955.078z M947.819-7.364L93.047,1087.149h4.655L952.474-7.364H947.819z
				 M962.338-7.364L107.566,1087.149h4.656L966.993-7.364H962.338z M969.598-7.364L114.826,1087.149h4.656L974.252-7.364H969.598z
				 M940.559-7.364L85.788,1087.149h4.656L945.215-7.364H940.559z M809.888-7.364L-13.044,1046.38v5.961L814.542-7.364H809.888z
				 M730.032-7.364L-13.044,944.127v5.963L734.688-7.364H730.032z M722.773-7.364L-13.044,934.832v5.96L727.428-7.364H722.773z
				 M744.552-7.364L-13.044,962.719v5.961L749.207-7.364H744.552z M737.292-7.364L-13.044,953.423v5.962L741.947-7.364H737.292z
				 M715.514-7.364l-728.558,932.9v5.962L720.168-7.364H715.514z M700.994-7.364L-13.044,906.945v5.961L705.649-7.364H700.994z
				 M686.475-7.364L-13.044,888.354v5.961L691.131-7.364H686.475z M679.216-7.364l-692.26,886.421v5.962L683.871-7.364H679.216z
				 M751.812-7.364L-13.044,972.015v5.962L756.467-7.364H751.812z M708.254-7.364L-13.044,916.24v5.962L712.91-7.364H708.254z
				 M693.734-7.364L-13.044,897.649v5.961L698.391-7.364H693.734z M773.59-7.364L-13.044,999.901v5.961L778.245-7.364H773.59z
				 M759.071-7.364L-13.044,981.311v5.961L763.726-7.364H759.071z M1027.673-7.364L172.901,1087.149h4.656L1032.328-7.364H1027.673z
				 M824.408-7.364L-13.044,1064.971v5.961L829.062-7.364H824.408z M831.666-7.364l-844.71,1081.63v5.962L836.322-7.364H831.666z
				 M802.628-7.364L-13.044,1037.084v5.961L807.284-7.364H802.628z M817.147-7.364L-13.044,1055.675v5.962l834.847-1069H817.147z
				 M766.33-7.364L-13.044,990.605v5.961L770.985-7.364H766.33z M846.186-7.364L-8.586,1087.149h4.656L850.84-7.364H846.186z
				 M780.85-7.364L-13.044,1009.197v5.961L785.504-7.364H780.85z M795.369-7.364L-13.044,1027.788v5.962L800.024-7.364H795.369z
				 M788.109-7.364L-13.044,1018.493v5.96L792.764-7.364H788.109z M984.116-7.364L129.345,1087.149H134L988.771-7.364H984.116z
				 M1259.979-7.364L405.207,1087.149h4.656L1264.633-7.364H1259.979z M1252.72-7.364L397.947,1087.149h4.656L1257.374-7.364
				H1252.72z M1267.237-7.364L412.466,1087.149h4.656L1271.894-7.364H1267.237z M1289.017-7.364L434.245,1087.149h4.656
				L1293.672-7.364H1289.017z M1209.162-7.364L354.39,1087.149h4.655L1213.816-7.364H1209.162z M1281.757-7.364L426.985,1087.149
				h4.656L1286.413-7.364H1281.757z M1216.422-7.364L361.649,1087.149h4.655L1221.076-7.364H1216.422z M1223.681-7.364
				L368.909,1087.149h4.656L1228.336-7.364H1223.681z M1238.2-7.364L383.428,1087.149h4.656L1242.855-7.364H1238.2z M1245.459-7.364
				L390.687,1087.149h4.657L1250.114-7.364H1245.459z M1230.941-7.364L376.169,1087.149h4.656L1235.596-7.364H1230.941z
				 M1274.498-7.364L419.726,1087.149h4.656L1279.152-7.364H1274.498z M1354.354-7.364L499.581,1087.149h4.656L1359.008-7.364
				H1354.354z M1347.093-7.364L492.321,1087.149h4.656L1351.749-7.364H1347.093z M1339.834-7.364L485.062,1087.149h4.656
				L1344.488-7.364H1339.834z M1368.871-7.364L514.1,1087.149h4.656L1373.526-7.364H1368.871z M1361.612-7.364L506.84,1087.149
				h4.655L1366.267-7.364H1361.612z M1034.934-7.364L180.162,1087.149h4.655L1039.588-7.364H1034.934z M1332.573-7.364
				L477.802,1087.149h4.656L1337.229-7.364H1332.573z M1303.536-7.364L448.764,1087.149h4.656L1308.19-7.364H1303.536z
				 M1310.796-7.364L456.023,1087.149h4.656L1315.45-7.364H1310.796z M1318.055-7.364L463.283,1087.149h4.656L1322.71-7.364
				H1318.055z M1296.276-7.364L441.504,1087.149h4.656L1300.93-7.364H1296.276z M1325.314-7.364L470.542,1087.149h4.655
				L1329.969-7.364H1325.314z M1078.49-7.364L223.718,1087.149h4.656L1083.146-7.364H1078.49z M1093.01-7.364L238.238,1087.149
				h4.656L1097.665-7.364H1093.01z M1085.75-7.364L230.978,1087.149h4.656L1090.404-7.364H1085.75z M1201.902-7.364L347.13,1087.149
				h4.656L1206.557-7.364H1201.902z M1107.528-7.364L252.756,1087.149h4.656L1112.184-7.364H1107.528z M1100.27-7.364
				L245.498,1087.149h4.655L1104.924-7.364H1100.27z M1042.192-7.364L187.421,1087.149h4.656L1046.848-7.364H1042.192z
				 M1071.23-7.364L216.458,1087.149h4.656L1075.886-7.364H1071.23z M1049.452-7.364L194.68,1087.149h4.656L1054.107-7.364H1049.452
				z M1063.972-7.364L209.2,1087.149h4.656L1068.626-7.364H1063.972z M1056.711-7.364L201.939,1087.149h4.657L1061.367-7.364
				H1056.711z M1114.787-7.364L260.016,1087.149h4.656L1119.443-7.364H1114.787z M1180.123-7.364L325.352,1087.149h4.656
				L1184.779-7.364H1180.123z M1122.048-7.364L267.276,1087.149h4.655L1126.702-7.364H1122.048z M1172.864-7.364L318.092,1087.149
				h4.656L1177.519-7.364H1172.864z M1187.384-7.364L332.612,1087.149h4.655L1192.038-7.364H1187.384z M1194.643-7.364
				L339.871,1087.149h4.656L1199.297-7.364H1194.643z M1165.605-7.364L310.833,1087.149h4.656L1170.259-7.364H1165.605z
				 M1129.306-7.364L274.535,1087.149h4.656L1133.962-7.364H1129.306z M1136.567-7.364L281.795,1087.149h4.656L1141.221-7.364
				H1136.567z M1151.086-7.364L296.314,1087.149h4.656L1155.74-7.364H1151.086z M1143.826-7.364L289.054,1087.149h4.656
				L1148.48-7.364H1143.826z M1158.345-7.364L303.574,1087.149h4.656L1163-7.364H1158.345z M933.3-7.364L78.528,1087.149h4.657
				L937.955-7.364H933.3z M207.346-7.364L-13.044,274.84v5.962L212.001-7.364H207.346z M185.567-7.364L-13.044,246.954v5.96
				L190.222-7.364H185.567z M192.827-7.364L-13.044,256.249v5.961L197.482-7.364H192.827z M200.087-7.364L-13.044,265.545v5.96
				L204.742-7.364H200.087z M221.865-7.364l-234.91,300.796v5.96L226.52-7.364H221.865z M214.605-7.364l-227.65,291.5v5.96
				L219.26-7.364H214.605z M142.01-7.364L-13.044,191.18v5.961L146.666-7.364H142.01z M229.125-7.364L-13.044,302.728v5.961
				L233.78-7.364H229.125z M156.53-7.364L-13.044,209.771v5.96L161.185-7.364H156.53z M163.789-7.364l-176.833,226.43v5.961
				L168.444-7.364H163.789z M171.048-7.364L-13.044,228.362v5.961L175.703-7.364H171.048z M178.308-7.364L-13.044,237.658v5.96
				L182.962-7.364H178.308z M149.27-7.364L-13.044,200.476v5.96l166.969-213.8H149.27z M294.46-7.364L-13.044,386.388v5.961
				L299.115-7.364H294.46z M287.201-7.364L-13.044,377.093v5.961l304.9-390.417H287.201z M308.979-7.364L-13.044,404.979v5.961
				L313.635-7.364H308.979z M279.941-7.364l-292.985,375.16v5.962L284.597-7.364H279.941z M301.72-7.364L-13.044,395.684v5.962
				L306.375-7.364H301.72z M236.384-7.364L-13.044,312.023v5.961L241.04-7.364H236.384z M243.644-7.364L-13.044,321.319v5.961
				L248.299-7.364H243.644z M250.903-7.364L-13.044,330.614v5.961L255.559-7.364H250.903z M265.422-7.364l-278.467,356.57v5.961
				L270.078-7.364H265.422z M258.162-7.364L-13.044,339.91v5.961L262.818-7.364H258.162z M272.682-7.364L-13.044,358.502v5.96
				L277.336-7.364H272.682z M25.857-7.364l-38.902,49.813v5.961L30.513-7.364H25.857z M11.339-7.364l-24.384,31.223v5.96
				L15.994-7.364H11.339z M47.637-7.364l-60.681,77.7v5.96L52.292-7.364H47.637z M33.117-7.364l-46.162,59.108v5.961l50.817-65.07
				H33.117z M40.376-7.364L-13.044,61.04v5.961L45.032-7.364H40.376z M18.598-7.364l-31.643,40.517v5.962L23.254-7.364H18.598z
				 M838.925-7.364L-13.044,1083.563v3.587h1.854L843.581-7.364H838.925z M-10.44-7.364l-2.604,3.334v5.961l7.26-9.296H-10.44z
				 M316.239-7.364L-13.044,414.275v5.962L320.895-7.364H316.239z M134.751-7.364L-13.044,181.884v5.961L139.406-7.364H134.751z
				 M4.079-7.364l-17.123,21.925v5.962L8.734-7.364H4.079z M-3.18-7.364l-9.864,12.631v5.96L1.474-7.364H-3.18z M105.713-7.364
				L-13.044,144.702v5.96L110.368-7.364H105.713z M98.453-7.364l-111.498,142.77v5.961L103.108-7.364H98.453z M664.696-7.364
				l-677.741,867.83v5.962L669.353-7.364H664.696z M127.491-7.364L-13.044,172.588v5.961L132.147-7.364H127.491z M120.231-7.364
				L-13.044,163.293v5.961L124.887-7.364H120.231z M112.973-7.364L-13.044,153.998v5.96L117.627-7.364H112.973z M62.155-7.364
				l-75.2,96.291v5.961L66.811-7.364H62.155z M69.415-7.364L-13.044,98.223v5.962L74.07-7.364H69.415z M91.193-7.364L-13.044,126.11
				v5.961L95.849-7.364H91.193z M83.935-7.364l-96.979,124.179v5.96L88.589-7.364H83.935z M76.674-7.364l-89.719,114.882v5.961
				L81.329-7.364H76.674z M54.896-7.364l-67.94,86.995v5.962L59.551-7.364H54.896z M555.804-7.364L-13.044,721.032v5.961
				L560.459-7.364H555.804z M541.285-7.364L-13.044,702.44v5.961L545.94-7.364H541.285z M548.544-7.364l-561.588,719.1v5.961
				L553.199-7.364H548.544z M563.063-7.364L-13.044,730.328v5.961L567.719-7.364H563.063z M323.499-7.364L-13.044,423.571v5.962
				L328.154-7.364H323.499z M504.987-7.364L-13.044,655.962v5.962L509.643-7.364H504.987z M577.582-7.364L-13.044,748.919v5.961
				L582.238-7.364H577.582z M512.247-7.364L-13.044,665.258v5.961L516.901-7.364H512.247z M519.506-7.364l-532.55,681.917v5.962
				L524.162-7.364H519.506z M534.025-7.364l-547.07,700.508v5.961L538.68-7.364H534.025z M526.766-7.364l-539.81,691.212v5.963
				L531.421-7.364H526.766z M628.399-7.364L-13.044,813.988v5.962L633.054-7.364H628.399z M635.659-7.364L-13.044,823.284v5.961
				L640.313-7.364H635.659z M642.918-7.364L-13.044,832.58v5.961L647.573-7.364H642.918z M584.842-7.364L-13.044,758.215v5.96
				L589.497-7.364H584.842z M657.437-7.364L-13.044,851.171v5.962L662.092-7.364H657.437z M650.178-7.364l-663.223,849.24v5.961
				L654.833-7.364H650.178z M497.728-7.364L-13.044,646.667v5.961L502.383-7.364H497.728z M599.36-7.364L-13.044,776.806v5.961
				L604.016-7.364H599.36z M592.102-7.364L-13.044,767.51v5.962L596.756-7.364H592.102z M613.879-7.364L-13.044,795.397v5.961
				L618.535-7.364H613.879z M621.139-7.364L-13.044,804.692v5.962L625.794-7.364H621.139z M606.62-7.364L-13.044,786.102v5.961
				L611.275-7.364H606.62z M570.322-7.364L-13.044,739.623v5.961L574.979-7.364H570.322z M367.055-7.364l-380.1,486.708v5.962
				L371.711-7.364H367.055z M381.575-7.364l-394.62,505.3v5.961L386.23-7.364H381.575z M403.353-7.364L-13.044,525.823v5.961
				L408.008-7.364H403.353z M388.834-7.364L-13.044,507.231v5.962L393.49-7.364H388.834z M396.094-7.364L-13.044,516.527v5.961
				L400.749-7.364H396.094z M374.315-7.364l-387.36,496.004v5.961L378.971-7.364H374.315z M330.758-7.364l-343.803,440.23v5.961
				L335.413-7.364H330.758z M490.468-7.364L-13.044,637.371v5.961L495.123-7.364H490.468z M352.537-7.364L-13.044,460.754v5.961
				L357.192-7.364H352.537z M359.797-7.364L-13.044,470.05v5.961L364.452-7.364H359.797z M345.277-7.364L-13.044,451.458v5.961
				L349.933-7.364H345.277z M338.018-7.364L-13.044,442.163v5.96L342.673-7.364H338.018z M468.689-7.364L-13.044,609.484v5.961
				L473.344-7.364H468.689z M461.43-7.364L-13.044,600.188v5.961L466.085-7.364H461.43z M475.949-7.364L-13.044,618.78v5.961
				L480.604-7.364H475.949z M483.208-7.364L-13.044,628.075v5.962L487.864-7.364H483.208z M454.171-7.364L-13.044,590.893v5.962
				L458.826-7.364H454.171z M446.911-7.364L-13.044,581.598v5.96L451.566-7.364H446.911z M425.132-7.364L-13.044,553.71v5.961
				L429.787-7.364H425.132z M417.873-7.364L-13.044,544.414v5.962L422.528-7.364H417.873z M439.651-7.364L-13.044,572.302v5.961
				L444.306-7.364H439.651z M410.614-7.364L-13.044,535.12v5.96L415.269-7.364H410.614z M432.392-7.364l-445.436,570.37v5.961
				L437.047-7.364H432.392z M1514.063-7.364L659.291,1087.149h4.655L1518.717-7.364H1514.063z M1484.63,1087.149l445.435-569.758
				v-5.958l-450.093,575.716H1484.63z M1462.852,1087.149l467.213-597.616v-5.956l-471.87,603.572H1462.852z M1470.111,1087.149
				l459.953-588.33v-5.957l-464.611,594.287H1470.111z M1477.371,1087.149l452.693-579.044v-5.957l-457.352,585H1477.371z
				 M1499.15,1087.149l430.914-551.186v-5.958l-435.573,557.144H1499.15z M1491.891,1087.149l438.174-560.472v-5.958
				l-442.832,566.43H1491.891z M1441.074,1087.149l488.99-625.472v-5.958l-493.648,631.43H1441.074z M1426.555,1087.149
				l503.51-644.043v-5.958l-508.168,650.001H1426.555z M1433.813,1087.149l496.251-634.759v-5.956l-500.909,640.715H1433.813z
				 M1448.332,1087.149l481.732-616.188v-5.958l-486.391,622.146H1448.332z M1506.41,1087.149l423.654-541.9v-5.957
				l-428.313,547.857H1506.41z M1455.592,1087.149l474.473-606.901v-5.957l-479.129,612.858H1455.592z M1593.522,1087.149
				l336.542-430.474v-5.955l-341.198,436.429H1593.522z M1564.484,1087.149l365.58-467.616v-5.956l-370.236,473.572H1564.484z
				 M1571.746,1087.149l358.318-458.329v-5.958l-362.979,464.287H1571.746z M1586.265,1087.149l343.8-439.757v-5.96
				l-348.459,445.717H1586.265z M1557.227,1087.149l372.838-476.9v-5.959l-377.498,482.859H1557.227z M1579.005,1087.149
				l351.06-449.043v-5.958l-355.718,455.001H1579.005z M1535.449,1087.149l394.615-504.757v-5.959l-399.275,510.716H1535.449z
				 M1520.928,1087.149l409.137-523.33v-5.957l-413.794,529.287H1520.928z M1528.188,1087.149l401.877-514.044v-5.958
				l-406.536,520.002H1528.188z M1419.294,1087.149l510.771-653.331v-5.955l-515.427,659.286H1419.294z M1513.668,1087.149
				l416.396-532.615v-5.958l-421.054,538.573H1513.668z M1542.707,1087.149l387.357-495.472v-5.959l-392.017,501.431H1542.707z
				 M1549.966,1087.149l380.099-486.187v-5.957l-384.756,492.144H1549.966z M1288.623,1087.149l641.441-820.473v-5.957
				l-646.099,826.429H1288.623z M1324.921,1087.149l605.144-774.044v-5.958l-609.802,780.002H1324.921z M1295.883,1087.149
				l634.182-811.187v-5.958l-638.84,817.145H1295.883z M1310.4,1087.149l619.664-792.617v-5.956l-624.321,798.573H1310.4z
				 M1317.662,1087.149l612.402-783.33v-5.959l-617.062,789.289H1317.662z M1303.143,1087.149l626.922-801.9v-5.958
				l-631.581,807.859H1303.143z M1259.586,1087.149l670.479-857.615v-5.958l-675.138,863.573H1259.586z M1281.363,1087.149
				l648.701-829.759v-5.956l-653.359,835.715H1281.363z M1252.326,1087.149l677.738-866.901v-5.957l-682.396,872.858H1252.326z
				 M1274.104,1087.149l655.961-839.044v-5.958l-660.62,845.003H1274.104z M1266.844,1087.149l663.221-848.33v-5.957
				l-667.878,854.287H1266.844z M1375.737,1087.149l554.327-709.045v-5.956l-558.984,715.001H1375.737z M1382.997,1087.149
				l547.067-699.758v-5.958l-551.726,705.717H1382.997z M1390.258,1087.149l539.807-690.472v-5.957L1385.6,1087.149H1390.258z
				 M1397.517,1087.149l532.548-681.187v-5.958l-537.206,687.145H1397.517z M1412.036,1087.149l518.028-662.614v-5.959
				l-522.688,668.573H1412.036z M1332.182,1087.149l597.883-764.758v-5.957l-602.542,770.715H1332.182z M1404.775,1087.149
				l525.289-671.901v-5.958l-529.948,677.859H1404.775z M1339.439,1087.149l590.625-755.473v-5.957l-595.282,761.43H1339.439z
				 M1368.479,1087.149l561.586-718.329v-5.958l-566.245,724.287H1368.479z M1346.7,1087.149l583.364-746.186v-5.958
				l-588.023,752.144H1346.7z M1361.219,1087.149l568.846-727.614v-5.958l-573.504,733.573H1361.219z M1353.958,1087.149
				l576.106-736.902v-5.956l-580.763,742.857H1353.958z M1840.348,1087.149l89.717-114.758v-5.957l-94.375,120.715H1840.348z
				 M1833.088,1087.149l96.977-124.043v-5.96l-101.636,130.003H1833.088z M1825.828,1087.149l104.236-133.33v-5.958
				l-108.895,139.288H1825.828z M1818.568,1087.149l111.496-142.615v-5.957l-116.153,148.572H1818.568z M1775.013,1087.149
				l155.052-198.328v-5.959l-159.711,204.287H1775.013z M1245.066,1087.149l684.998-876.187v-5.957l-689.656,882.143H1245.066z
				 M1789.531,1087.149l140.533-179.758v-5.958l-145.192,185.716H1789.531z M1782.271,1087.149l147.793-189.044v-5.957
				l-152.45,195.001H1782.271z M1811.31,1087.149l118.755-151.9v-5.958l-123.413,157.858H1811.31z M1854.867,1087.149l75.197-96.186
				v-5.96l-79.856,102.146H1854.867z M1804.049,1087.149l126.016-161.187v-5.957l-130.672,167.144H1804.049z M1796.791,1087.149
				l133.273-170.472v-5.957l-137.931,176.429H1796.791z M1847.607,1087.149l82.457-105.471v-5.958l-87.114,111.429H1847.607z
				 M1862.126,1087.149l67.938-86.901v-5.957l-72.597,92.858H1862.126z M1920.203,1087.149l9.861-12.614v-5.958l-14.52,18.572
				H1920.203z M1927.463,1087.149l2.602-3.328v-5.959l-7.261,9.287H1927.463z M1905.684,1087.149l24.381-31.187v-5.956
				l-29.038,37.143H1905.684z M1912.943,1087.149l17.121-21.899v-5.96l-21.78,27.859H1912.943z M1876.646,1087.149l53.419-68.329
				v-5.958l-58.077,74.287H1876.646z M1869.385,1087.149l60.68-77.615v-5.958l-65.337,83.573H1869.385z M1883.906,1087.149
				l46.158-59.042v-5.959l-50.817,65.001H1883.906z M1891.164,1087.149l38.9-49.758v-5.957l-43.558,55.715H1891.164z
				 M1898.424,1087.149l31.641-40.472v-5.959l-36.3,46.431H1898.424z M1716.936,1087.149l213.129-272.615v-5.956l-217.786,278.571
				H1716.936z M1651.6,1087.149l278.465-356.188v-5.957l-283.123,362.145H1651.6z M1658.859,1087.149l271.205-346.9v-5.958
				l-275.862,352.858H1658.859z M1666.119,1087.149l263.945-337.614v-5.957l-268.604,343.571H1666.119z M1673.379,1087.149
				l256.686-328.329v-5.956l-261.343,334.285H1673.379z M1644.34,1087.149l285.725-365.472v-5.958l-290.382,371.43H1644.34z
				 M1615.303,1087.149l314.762-402.614v-5.959l-319.421,408.573H1615.303z M1608.042,1087.149l322.022-411.901v-5.956
				l-326.679,417.857H1608.042z M1680.639,1087.149l249.426-319.043v-5.958l-254.084,325.001H1680.639z M1629.822,1087.149
				l300.242-384.042v-5.958l-304.9,390H1629.822z M1637.081,1087.149l292.983-374.758v-5.957l-297.642,380.715H1637.081z
				 M1622.562,1087.149l307.503-393.33v-5.957l-312.162,399.287H1622.562z M1767.752,1087.149l162.313-207.615v-5.957
				l-166.97,213.572H1767.752z M1731.455,1087.149l198.609-254.044v-5.957l-203.268,260.001H1731.455z M1745.975,1087.149
				l184.09-235.472v-5.959l-188.75,241.431H1745.975z M1687.896,1087.149l242.168-309.759v-5.957l-246.825,315.716H1687.896z
				 M1753.234,1087.149l176.83-226.185v-5.96l-181.489,232.145H1753.234z M1760.492,1087.149l169.572-216.901v-5.957
				l-174.23,222.858H1760.492z M1738.713,1087.149l191.352-244.759v-5.956l-196.008,250.715H1738.713z M1702.416,1087.149
				l227.648-291.188v-5.956l-232.306,297.144H1702.416z M1695.156,1087.149l234.908-300.474v-5.957l-239.566,306.431H1695.156z
				 M1709.678,1087.149l220.387-281.899v-5.959l-225.047,287.858H1709.678z M1724.195,1087.149l205.869-263.329v-5.959
				l-210.528,269.288H1724.195z M1600.783,1087.149l329.281-421.186v-5.959l-333.939,427.145H1600.783z M1644.732-7.364
				L789.961,1087.149h4.656L1649.389-7.364H1644.732z M1630.215-7.364L775.442,1087.149h4.657L1634.87-7.364H1630.215z
				 M1651.994-7.364L797.222,1087.149h4.656L1656.648-7.364H1651.994z M1615.696-7.364L760.924,1087.149h4.656L1620.351-7.364
				H1615.696z M1622.955-7.364L768.183,1087.149h4.656L1627.61-7.364H1622.955z M1637.475-7.364L782.703,1087.149h4.656
				L1642.129-7.364H1637.475z M1383.391-7.364L528.619,1087.149h4.656L1388.046-7.364H1383.391z M1608.436-7.364L753.664,1087.149
				h4.657L1613.092-7.364H1608.436z M1237.807,1087.149l692.258-885.474v-5.957l-696.916,891.43H1237.807z M1739.107-7.364
				L884.336,1087.149h4.656L1743.763-7.364H1739.107z M1572.139-7.364L717.367,1087.149h4.656L1576.794-7.364H1572.139z
				 M1593.918-7.364L739.146,1087.149h4.656L1598.572-7.364H1593.918z M1586.658-7.364L731.886,1087.149h4.655L1591.313-7.364
				H1586.658z M1731.849-7.364L877.077,1087.149h4.656L1736.503-7.364H1731.849z M1710.07-7.364L855.298,1087.149h4.656
				L1714.725-7.364H1710.07z M1717.33-7.364L862.558,1087.149h4.656L1721.984-7.364H1717.33z M1564.879-7.364L710.107,1087.149
				h4.656L1569.534-7.364H1564.879z M1724.59-7.364L869.817,1087.149h4.656L1729.244-7.364H1724.59z M1702.811-7.364
				L848.039,1087.149h4.656L1707.465-7.364H1702.811z M1688.291-7.364L833.52,1087.149h4.655L1692.945-7.364H1688.291z
				 M1695.551-7.364L840.779,1087.149h4.656L1700.206-7.364H1695.551z M1666.513-7.364L811.741,1087.149h4.656L1671.167-7.364
				H1666.513z M1673.771-7.364L819,1087.149h4.656L1678.428-7.364H1673.771z M1659.254-7.364L804.481,1087.149h4.655L1663.908-7.364
				H1659.254z M1681.032-7.364L826.26,1087.149h4.655L1685.686-7.364H1681.032z M1579.398-7.364L724.626,1087.149h4.655
				L1584.053-7.364H1579.398z M1441.467-7.364L586.695,1087.149h4.656L1446.122-7.364H1441.467z M1434.207-7.364L579.436,1087.149
				h4.656L1438.861-7.364H1434.207z M1463.246-7.364L608.474,1087.149h4.655L1467.9-7.364H1463.246z M1455.986-7.364
				L601.214,1087.149h4.657L1460.642-7.364H1455.986z M1426.948-7.364L572.176,1087.149h4.656L1431.603-7.364H1426.948z
				 M1448.727-7.364L593.955,1087.149h4.656L1453.381-7.364H1448.727z M1390.65-7.364L535.878,1087.149h4.656L1395.305-7.364
				H1390.65z M1419.689-7.364L564.917,1087.149h4.656L1424.344-7.364H1419.689z M1397.909-7.364L543.137,1087.149h4.657
				L1402.564-7.364H1397.909z M1405.17-7.364L550.397,1087.149h4.657L1409.824-7.364H1405.17z M1412.429-7.364L557.657,1087.149
				h4.656L1417.083-7.364H1412.429z M1543.101-7.364L688.328,1087.149h4.656L1547.755-7.364H1543.101z M1528.582-7.364
				L673.81,1087.149h4.655L1533.236-7.364H1528.582z M1521.321-7.364L666.549,1087.149h4.656L1525.978-7.364H1521.321z
				 M1470.504-7.364L615.733,1087.149h4.656L1475.16-7.364H1470.504z M1550.36-7.364L695.588,1087.149h4.655L1555.014-7.364H1550.36
				z M1557.62-7.364L702.848,1087.149h4.656L1562.274-7.364H1557.62z M1535.841-7.364L681.069,1087.149h4.656L1540.495-7.364
				H1535.841z M1485.025-7.364L630.253,1087.149h4.655L1489.679-7.364H1485.025z M1477.765-7.364L622.993,1087.149h4.656
				L1482.419-7.364H1477.765z M1506.802-7.364L652.03,1087.149h4.656L1511.457-7.364H1506.802z M1492.284-7.364L637.512,1087.149
				h4.656L1496.938-7.364H1492.284z M1499.543-7.364L644.771,1087.149h4.656L1504.198-7.364H1499.543z M1601.176-7.364
				L746.404,1087.149h4.657L1605.832-7.364H1601.176z M1114.395,1087.149l815.67-1043.33v-5.956l-820.328,1049.286H1114.395z
				 M1128.913,1087.149L1930.064,62.391v-5.958l-805.81,1030.716H1128.913z M1921.865-7.364L1066.18,1087.149h4.657L1926.522-7.364
				H1921.865z M1143.432,1087.149L1930.064,80.961v-5.955l-791.29,1012.144H1143.432z M1136.173,1087.149L1930.064,71.675v-5.957
				l-798.55,1021.431H1136.173z M1107.135,1087.149l822.93-1052.616v-5.957l-827.588,1058.573H1107.135z M1929.125-7.364
				l-855.686,1094.513h4.657L1930.064-2.609v-4.754H1929.125z M1085.356,1087.149L1930.064,6.678V0.719l-849.367,1086.431H1085.356z
				 M1099.875,1087.149L1930.064,25.248V19.29l-834.848,1067.859H1099.875z M1092.616,1087.149L1930.064,15.962v-5.956
				l-842.106,1077.144H1092.616z M1150.693,1087.149l779.371-996.901v-5.958l-784.03,1002.858H1150.693z M1121.654,1087.149
				l808.41-1034.044v-5.958l-813.068,1040.001H1121.654z M1216.027,1087.149l714.037-913.33v-5.957l-718.695,919.286H1216.027z
				 M1208.768,1087.149l721.297-922.616v-5.956l-725.954,928.572H1208.768z M1230.547,1087.149l699.518-894.759v-5.958
				l-704.177,900.717H1230.547z M1201.51,1087.149l728.555-931.901v-5.957l-733.213,937.858H1201.51z M1223.287,1087.149
				l706.777-904.045v-5.955l-711.435,910H1223.287z M1165.211,1087.149l764.854-978.33v-5.957l-769.511,984.287H1165.211z
				 M1194.25,1087.149l735.814-941.186v-5.958l-740.474,947.144H1194.25z M1157.952,1087.149l772.112-987.615v-5.957
				l-776.771,993.572H1157.952z M1172.471,1087.149l757.594-969.044v-5.957l-762.251,975.001H1172.471z M1179.729,1087.149
				l750.335-959.76v-5.955l-754.992,965.715H1179.729z M1186.989,1087.149l743.075-950.474v-5.956l-747.732,956.43H1186.989z
				 M1900.087-7.364L1044.4,1087.149h4.658L1904.743-7.364H1900.087z M1804.444-7.364L949.672,1087.149h4.655L1809.098-7.364
				H1804.444z M1914.605-7.364L1058.92,1087.149h4.657L1919.262-7.364H1914.605z M1812.972-7.364L957.286,1087.149h4.658
				L1817.629-7.364H1812.972z M1820.231-7.364L964.545,1087.149h4.658L1824.887-7.364H1820.231z M1789.925-7.364L935.152,1087.149
				h4.656L1794.578-7.364H1789.925z M1768.146-7.364L913.374,1087.149h4.656L1772.801-7.364H1768.146z M1760.887-7.364
				L906.115,1087.149h4.655L1765.541-7.364H1760.887z M1753.626-7.364L898.854,1087.149h4.656L1758.281-7.364H1753.626z
				 M1827.491-7.364L971.805,1087.149h4.658L1832.147-7.364H1827.491z M1782.666-7.364L927.894,1087.149h4.655L1787.32-7.364
				H1782.666z M1775.405-7.364L920.633,1087.149h4.656L1780.061-7.364H1775.405z M1797.185-7.364L942.412,1087.149h4.655
				L1801.84-7.364H1797.185z M1885.567-7.364l-855.687,1094.513h4.658L1890.224-7.364H1885.567z M1892.826-7.364l-855.686,1094.513
				h4.658L1897.483-7.364H1892.826z M1878.309-7.364l-855.688,1094.513h4.659L1882.965-7.364H1878.309z M1746.367-7.364
				L891.595,1087.149h4.656L1751.021-7.364H1746.367z M1907.346-7.364L1051.66,1087.149h4.658L1912.003-7.364H1907.346z
				 M1834.751-7.364L979.064,1087.149h4.658L1839.407-7.364H1834.751z M1842.011-7.364L986.324,1087.149h4.658L1846.667-7.364
				H1842.011z M1871.048-7.364l-855.686,1094.513h4.658L1875.706-7.364H1871.048z M1849.271-7.364L993.584,1087.149h4.657
				L1853.926-7.364H1849.271z M1863.789-7.364l-855.686,1094.513h4.657L1868.445-7.364H1863.789z M1856.53-7.364l-855.687,1094.513
				h4.657L1861.187-7.364H1856.53z"/>
		</g>
	</g>
</g>
<g id="Layer_1_copy_2">
	<g>
		<g id="Shape_1_1_">
			<g>
				
					<linearGradient id="SVGID_3_" gradientUnits="userSpaceOnUse" x1="556.8628" y1="540.8027" x2="1302.3008" y2="540.8027" gradientTransform="matrix(1 0 0 1 -30 4)">
					<stop  offset="0" style="stop-color:#000000"/>
					<stop  offset="0.1576" style="stop-color:#055587"/>
					<stop  offset="0.303" style="stop-color:#0999F2"/>
					<stop  offset="0.5" style="stop-color:#47C2FC"/>
					<stop  offset="0.703" style="stop-color:#0999F2"/>
					<stop  offset="0.8545" style="stop-color:#044A75"/>
					<stop  offset="1" style="stop-color:#000000"/>
				</linearGradient>
				<path fill-rule="evenodd" clip-rule="evenodd" fill="url(#SVGID_3_)" d="M928.014,370.657l-4.982-15.353
					c-46.201-2.631-243.315,48.137-332.124,118.961c104.438-54.088,146.073-68.36,197.04-82.553
					C838.917,377.526,902.819,369.211,928.014,370.657z M1152.161,451.454l7.954-0.521c0,0-48.329-54.573-135.089-81.53
					C1074.095,389.354,1118.589,415.859,1152.161,451.454z M921.511,346.592c0,0-2.072-9.408-3.184-15.08
					c-9.823-1.8-223.398-2.352-391.465,37.346C689.397,347.975,780.002,337.736,921.511,346.592z M1127.244,623.46
					c129.896,22.738,145.057,114.389,145.057,114.389s-4.94-61.862-70.146-100.29c-65.217-38.417-130.078-43.004-174.844-43.885
					c-44.769-0.883-67.157-4.406-89.25-27.552c-34.782-42.354-21.376-73.215-16.364-88.729
					c5.015-15.514,26.014-50.321,66.601-52.877c46.057-2.172,52.491,5.114,71.506,11.827c19.014,6.715,70.092,29.135,77,32.351
					c-0.193,6.335-0.472,12.578,3.691,17.784c4.158,5.201,20.145,10.879,25.257,13.808c5.101,2.935,21.471,13.342,31.501,26.392
					c2.169-4.064,20.329-15.893,20.329-15.893s-4.346,0.093-14.473-3.686c-10.115-3.786-22.128-15.229-22.415-15.894
					c-0.284-0.663-0.472-1.706,1.886-2.178c1.802-1.514-2.264-6.429-4.058-8.229c-1.799-1.799-13.813-22.228-14.099-22.7
					c-0.287-0.471-0.378-0.95-1.229-1.514c-2.649-0.851-14.286,1.228-14.286,1.228s-9.146-6.757-23.952-24.791
					c0.092,3.319,0.36,2.513,2.604,13.907c-9.332-3.947-23.414-16.42-27.986-23.774c-0.185,3.86,1.787,10.14,1.787,10.14
					s-10.401-3.679-14.08-6.28c-3.681-2.606-10.631-10.835-10.631-10.835l0.235,6.28c0,0-40.957-18.381-64.449-19.541
					c-23.508-1.167-24.898,1.396-33.511-1.632c-38.159-10.935-40.716-30.712-43.975-42.813c-3.256-12.101-5.584-23.264,0-43.042
					c0,0-47.465-24.202-118.2-35.602c-70.734-11.399-190.794-12.796-257.339-9.073c189.629,0.466,298.291,29.315,360.883,55.372
					c4.884,27.46,21.868,67.945,30.71,87.487c-25.598,15.123-50.494,28.621-57.237,92.842
					c-6.749,64.215,47.463,105.868,106.1,107.028c58.637,1.168,89.35-1.625,144.492,35.601
					c55.147,37.229,90.707,117.727,95.335,171.6C1242.689,767.983,1212.194,679.864,1127.244,623.46z M1165.826,474.364
					c1.83,1.633,6.682,8.626,6.739,9.167c0.048,0.539,0.272,1.086-0.387,1.03c-0.646-0.056-4.796-2.868-6.074-4.667
					C1164.485,477.611,1165.826,474.364,1165.826,474.364z"/>
			</g>
		</g>
		<g id="Shape_1_2_" display="none">
			<g display="inline">
				<path fill-rule="evenodd" clip-rule="evenodd" fill="#FFFFFF" d="M1152.93,449.912l7.956-0.521
					c0,0-48.328-54.573-135.088-81.529C1074.865,387.813,1119.359,414.317,1152.93,449.912z M1128.016,621.92
					c129.895,22.736,145.058,114.387,145.058,114.387s-4.942-61.864-70.148-100.29c-65.216-38.417-130.075-43.004-174.843-43.883
					c-44.767-0.883-67.158-4.408-89.25-27.554c-34.782-42.354-21.377-73.214-16.365-88.729
					c5.015-15.514,26.014-50.322,66.599-52.878c46.059-2.172,52.493,5.114,71.507,11.828c19.015,6.714,70.092,29.135,76.998,32.35
					c-0.19,6.335-0.47,12.579,3.693,17.785c4.159,5.201,20.143,10.879,25.258,13.808c5.1,2.936,21.471,13.343,31.5,26.393
					c2.17-4.064,20.33-15.892,20.33-15.892s-4.346,0.093-14.474-3.687c-10.115-3.784-22.129-15.229-22.414-15.892
					c-0.285-0.664-0.472-1.706,1.885-2.178c1.8-1.514-2.263-6.429-4.057-8.229c-1.8-1.8-13.814-22.229-14.099-22.7
					c-0.287-0.472-0.379-0.95-1.229-1.514c-2.652-0.85-14.286,1.229-14.286,1.229s-9.146-6.757-23.954-24.792
					c0.093,3.32,0.361,2.514,2.606,13.908c-9.332-3.947-23.414-16.421-27.986-23.774c-0.186,3.86,1.787,10.14,1.787,10.14
					s-10.402-3.68-14.08-6.28c-3.681-2.606-10.631-10.835-10.631-10.835l0.237,6.28c0,0-40.959-18.38-64.452-19.541
					c-23.507-1.167-24.897,1.396-33.51-1.633c-38.159-10.934-40.716-30.711-43.975-42.812c-3.257-12.101-5.584-23.265,0-43.042
					c0,0-47.466-24.202-118.2-35.602c-70.734-11.399-190.794-12.796-257.339-9.073c189.629,0.466,298.291,29.315,360.882,55.373
					c4.884,27.46,21.869,67.945,30.712,87.486c-25.598,15.123-50.495,28.62-57.237,92.842
					c-6.75,64.215,47.462,105.868,106.099,107.028c58.637,1.168,89.348-1.628,144.49,35.601
					c55.149,37.229,90.709,117.727,95.337,171.598C1243.46,766.441,1212.965,678.322,1128.016,621.92z M1166.597,472.823
					c1.829,1.631,6.682,8.625,6.74,9.166c0.048,0.54,0.272,1.086-0.387,1.03c-0.646-0.056-4.797-2.867-6.075-4.667
					C1165.256,476.068,1166.597,472.823,1166.597,472.823z M928.785,369.115l-4.982-15.353
					c-46.201-2.631-243.315,48.137-332.124,118.961c104.438-54.088,146.073-68.361,197.04-82.553
					C839.689,375.985,903.59,367.669,928.785,369.115z M922.282,345.05c0,0-2.072-9.408-3.184-15.08
					c-9.824-1.8-223.398-2.352-391.465,37.345C690.167,346.434,780.773,336.194,922.282,345.05z"/>
			</g>
		</g>
		<g id="Shape_1_3_" display="none">
			<g display="inline">
				<path fill-rule="evenodd" clip-rule="evenodd" d="M929.85,368.051l-4.983-15.352c-46.201-2.631-243.315,48.137-332.123,118.961
					c104.437-54.088,146.073-68.361,197.04-82.553C840.753,374.921,904.654,366.605,929.85,368.051z M1153.994,448.848l7.956-0.521
					c0,0-48.329-54.573-135.089-81.529C1075.93,386.748,1120.424,413.253,1153.994,448.848z M923.347,343.986
					c0,0-2.072-9.408-3.184-15.079c-9.824-1.8-223.398-2.352-391.464,37.344C691.231,345.37,781.837,335.13,923.347,343.986z
					 M1129.08,620.855c129.895,22.736,145.058,114.387,145.058,114.387s-4.942-61.864-70.148-100.289
					c-65.217-38.418-130.075-43.004-174.844-43.884c-44.767-0.883-67.157-4.407-89.25-27.554
					c-34.782-42.354-21.377-73.214-16.364-88.729c5.015-15.514,26.014-50.321,66.599-52.877
					c46.059-2.172,52.493,5.114,71.508,11.828c19.014,6.714,70.092,29.135,76.998,32.35c-0.191,6.336-0.47,12.579,3.693,17.785
					c4.158,5.2,20.143,10.879,25.257,13.808c5.101,2.936,21.471,13.342,31.501,26.393c2.169-4.064,20.329-15.892,20.329-15.892
					s-4.346,0.092-14.473-3.687c-10.115-3.785-22.13-15.229-22.414-15.892c-0.285-0.664-0.473-1.706,1.885-2.178
					c1.8-1.514-2.264-6.429-4.057-8.229c-1.8-1.8-13.814-22.229-14.1-22.7c-0.286-0.472-0.378-0.95-1.229-1.514
					c-2.651-0.851-14.285,1.229-14.285,1.229s-9.146-6.758-23.955-24.792c0.094,3.32,0.362,2.514,2.606,13.907
					c-9.331-3.947-23.414-16.42-27.986-23.774c-0.185,3.86,1.788,10.14,1.788,10.14s-10.402-3.68-14.081-6.28
					c-3.681-2.606-10.63-10.834-10.63-10.834l0.236,6.28c0,0-40.959-18.38-64.451-19.541c-23.508-1.167-24.898,1.396-33.511-1.633
					c-38.159-10.934-40.715-30.711-43.974-42.812c-3.257-12.101-5.585-23.265,0-43.042c0,0-47.466-24.202-118.201-35.602
					c-70.733-11.399-190.794-12.796-257.339-9.073c189.63,0.465,298.291,29.315,360.883,55.373
					c4.884,27.46,21.868,67.945,30.712,87.486c-25.599,15.123-50.495,28.62-57.237,92.841
					c-6.75,64.215,47.463,105.869,106.1,107.028c58.637,1.168,89.348-1.627,144.49,35.602
					c55.149,37.228,90.709,117.726,95.337,171.597C1244.524,765.377,1214.029,677.258,1129.08,620.855z M1167.661,471.759
					c1.829,1.631,6.682,8.625,6.739,9.165c0.048,0.54,0.272,1.086-0.386,1.03c-0.646-0.055-4.797-2.867-6.075-4.667
					C1166.32,475.004,1167.661,471.759,1167.661,471.759z"/>
			</g>
		</g>
		<g id="Shape_1_4_">
			<g>
				<path fill-rule="evenodd" clip-rule="evenodd" fill="#FFFFFF" d="M1128.016,621.92
					c129.895,22.736,145.058,114.387,145.058,114.387s-4.942-61.864-70.148-100.29c-65.216-38.417-130.075-43.004-174.843-43.883
					c-44.767-0.883-67.158-4.408-89.25-27.554c-34.782-42.354-21.377-73.214-16.365-88.729
					c5.015-15.514,26.014-50.322,66.599-52.878c46.059-2.172,52.493,5.114,71.507,11.828c19.015,6.714,70.092,29.135,76.998,32.35
					c-0.19,6.335-0.47,12.579,3.693,17.785c4.159,5.201,20.143,10.879,25.258,13.808c5.1,2.936,21.471,13.343,31.5,26.393
					c2.17-4.064,20.33-15.892,20.33-15.892s-4.346,0.093-14.474-3.687c-10.115-3.784-22.129-15.229-22.414-15.892
					c-0.285-0.664-0.472-1.706,1.885-2.178c1.8-1.514-2.263-6.429-4.057-8.229c-1.8-1.8-13.814-22.229-14.099-22.7
					c-0.287-0.472-0.379-0.95-1.229-1.514c-2.652-0.85-14.286,1.229-14.286,1.229s-9.146-6.757-23.954-24.792
					c0.093,3.32,0.361,2.514,2.606,13.908c-9.332-3.947-23.414-16.421-27.986-23.774c-0.186,3.86,1.787,10.14,1.787,10.14
					s-10.402-3.68-14.08-6.28c-3.681-2.606-10.631-10.835-10.631-10.835l0.237,6.28c0,0-40.959-18.38-64.452-19.541
					c-23.507-1.167-24.897,1.396-33.51-1.633c-38.159-10.934-40.716-30.711-43.975-42.812c-3.257-12.101-5.584-23.265,0-43.042
					c0,0-47.466-24.202-118.2-35.602c-70.734-11.399-190.794-12.796-257.339-9.073c189.629,0.466,298.291,29.315,360.882,55.373
					c4.884,27.46,21.869,67.945,30.712,87.486c-25.598,15.123-50.495,28.62-57.237,92.842
					c-6.75,64.215,47.462,105.868,106.099,107.028c58.637,1.168,89.348-1.628,144.49,35.601
					c55.149,37.229,90.709,117.727,95.337,171.598C1243.46,766.441,1212.965,678.322,1128.016,621.92z M1166.597,472.823
					c1.829,1.631,6.682,8.625,6.74,9.166c0.048,0.54,0.272,1.086-0.387,1.03c-0.646-0.056-4.797-2.867-6.075-4.667
					C1165.256,476.068,1166.597,472.823,1166.597,472.823z M1152.93,449.912l7.956-0.521c0,0-48.328-54.573-135.088-81.529
					C1074.865,387.813,1119.359,414.317,1152.93,449.912z M928.785,369.115l-4.982-15.353
					c-46.201-2.631-243.315,48.137-332.124,118.961c104.438-54.088,146.073-68.361,197.04-82.553
					C839.689,375.985,903.59,367.669,928.785,369.115z M922.282,345.05c0,0-2.072-9.408-3.184-15.08
					c-9.824-1.8-223.398-2.352-391.465,37.345C690.167,346.434,780.773,336.194,922.282,345.05z"/>
			</g>
		</g>
	</g>
</g>
</svg>
